<mxfile host="app.diagrams.net" modified="2021-04-19T15:41:25.312Z" agent="5.0 (Macintosh; Intel Mac OS X 11_2_2) AppleWebKit/537.36 (KHTML, like Gecko) Chrome/89.0.4389.90 Safari/537.36" etag="z5ppBbimbGcHBkl4fAy9" version="14.5.7" type="github">
  <diagram name="Page-1" id="90a13364-a465-7bf4-72fc-28e22215d7a0">
    <mxGraphModel dx="925" dy="605" grid="1" gridSize="10" guides="1" tooltips="1" connect="1" arrows="1" fold="1" page="1" pageScale="1.5" pageWidth="1169" pageHeight="826" background="#ffffff" math="0" shadow="0">
      <root>
        <mxCell id="0" style=";html=1;" />
        <mxCell id="1" style=";html=1;" parent="0" />
        <mxCell id="3a17f1ce550125da-2" value="&lt;font style=&quot;font-size: 24px&quot; face=&quot;Tahoma&quot;&gt;&lt;b&gt;To-Do App&lt;/b&gt;&lt;/font&gt;&lt;br&gt;&lt;br&gt;&lt;font style=&quot;font-size: 18px&quot;&gt;A web application allowing the User to post their todo list, and categorise it into To do, doing and completed.&lt;/font&gt;" style="whiteSpace=wrap;html=1;shadow=1;fontSize=18;fillColor=#dae8fc;strokeColor=#6c8ebf;" parent="1" vertex="1">
          <mxGeometry x="770" y="444" width="170" height="280" as="geometry" />
        </mxCell>
        <mxCell id="3a17f1ce550125da-20" style="edgeStyle=elbowEdgeStyle;rounded=0;html=1;startArrow=none;startFill=0;jettySize=auto;orthogonalLoop=1;fontSize=18;elbow=vertical;" parent="1" source="3a17f1ce550125da-8" target="3a17f1ce550125da-2" edge="1">
          <mxGeometry relative="1" as="geometry">
            <Array as="points">
              <mxPoint x="757" y="514" />
            </Array>
          </mxGeometry>
        </mxCell>
        <mxCell id="3a17f1ce550125da-8" value="&lt;b&gt;User&lt;br&gt;&lt;/b&gt;A user who has items to complete" style="whiteSpace=wrap;html=1;shadow=1;fontSize=18;fillColor=#ffe6cc;strokeColor=#d79b00;" parent="1" vertex="1">
          <mxGeometry x="500" y="444" width="120" height="150" as="geometry" />
        </mxCell>
        <mxCell id="6fAG5YwJJxlUDYIbmbZ--1" value="uses the app to view and edit items on list" style="text;html=1;strokeColor=none;fillColor=none;align=center;verticalAlign=middle;whiteSpace=wrap;rounded=0;" vertex="1" parent="1">
          <mxGeometry x="640" y="530" width="110" height="20" as="geometry" />
        </mxCell>
        <mxCell id="6fAG5YwJJxlUDYIbmbZ--2" value="&lt;b&gt;Trello&lt;br&gt;&lt;/b&gt;&amp;nbsp;A web-based list-making app&amp;nbsp;" style="whiteSpace=wrap;html=1;shadow=1;fontSize=18;fillColor=#fff2cc;strokeColor=#d6b656;" vertex="1" parent="1">
          <mxGeometry x="1110" y="550" width="160" height="96" as="geometry" />
        </mxCell>
        <mxCell id="6fAG5YwJJxlUDYIbmbZ--6" style="edgeStyle=elbowEdgeStyle;rounded=0;html=1;startArrow=none;startFill=0;jettySize=auto;orthogonalLoop=1;fontSize=18;elbow=vertical;entryX=0.5;entryY=0;entryDx=0;entryDy=0;" edge="1" parent="1" target="6fAG5YwJJxlUDYIbmbZ--2">
          <mxGeometry relative="1" as="geometry">
            <Array as="points">
              <mxPoint x="1070" y="490" />
            </Array>
            <mxPoint x="940" y="490" as="sourcePoint" />
            <mxPoint x="1280" y="490" as="targetPoint" />
          </mxGeometry>
        </mxCell>
        <mxCell id="6fAG5YwJJxlUDYIbmbZ--8" value="to store and&lt;br/&gt;manage the to-do items" style="text;html=1;strokeColor=none;fillColor=none;align=center;verticalAlign=middle;whiteSpace=wrap;rounded=0;" vertex="1" parent="1">
          <mxGeometry x="990" y="509" width="110" height="20" as="geometry" />
        </mxCell>
      </root>
    </mxGraphModel>
  </diagram>
</mxfile>
